<mxfile host="app.diagrams.net" agent="Mozilla/5.0 (Windows NT 10.0; Win64; x64) AppleWebKit/537.36 (KHTML, like Gecko) Chrome/127.0.0.0 Safari/537.36 OPR/113.0.0.0" version="24.7.14">
  <diagram name="Página-1" id="wSLnvMerJuhb_43XmwoL">
    <mxGraphModel grid="1" page="1" gridSize="10" guides="1" tooltips="1" connect="1" arrows="1" fold="1" pageScale="1" pageWidth="827" pageHeight="1169" math="0" shadow="0">
      <root>
        <mxCell id="0" />
        <mxCell id="1" parent="0" />
        <mxCell id="VZGTKw0vWEDiZFxiLXY9-28" value="Interfaz" style="shape=umlLifeline;perimeter=lifelinePerimeter;whiteSpace=wrap;html=1;container=1;collapsible=0;recursiveResize=0;outlineConnect=0;rounded=1;shadow=0;comic=0;labelBackgroundColor=none;strokeWidth=1;fontFamily=Verdana;fontSize=12;align=center;" vertex="1" parent="1">
          <mxGeometry x="400" y="40" width="100" height="680" as="geometry" />
        </mxCell>
        <mxCell id="VZGTKw0vWEDiZFxiLXY9-29" value="" style="html=1;points=[];perimeter=orthogonalPerimeter;rounded=0;shadow=0;comic=0;labelBackgroundColor=none;strokeWidth=1;fontFamily=Verdana;fontSize=12;align=center;" vertex="1" parent="VZGTKw0vWEDiZFxiLXY9-28">
          <mxGeometry x="45" y="100" width="10" height="20" as="geometry" />
        </mxCell>
        <mxCell id="VZGTKw0vWEDiZFxiLXY9-30" value="" style="html=1;points=[];perimeter=orthogonalPerimeter;rounded=0;shadow=0;comic=0;labelBackgroundColor=none;strokeWidth=1;fontFamily=Verdana;fontSize=12;align=center;" vertex="1" parent="VZGTKw0vWEDiZFxiLXY9-28">
          <mxGeometry x="45" y="130" width="10" height="30" as="geometry" />
        </mxCell>
        <mxCell id="VZGTKw0vWEDiZFxiLXY9-31" value="" style="html=1;points=[];perimeter=orthogonalPerimeter;rounded=0;shadow=0;comic=0;labelBackgroundColor=none;strokeWidth=1;fontFamily=Verdana;fontSize=12;align=center;" vertex="1" parent="VZGTKw0vWEDiZFxiLXY9-28">
          <mxGeometry x="45" y="370" width="10" height="30" as="geometry" />
        </mxCell>
        <mxCell id="VZGTKw0vWEDiZFxiLXY9-32" value="" style="html=1;points=[];perimeter=orthogonalPerimeter;rounded=0;shadow=0;comic=0;labelBackgroundColor=none;strokeWidth=1;fontFamily=Verdana;fontSize=12;align=center;" vertex="1" parent="VZGTKw0vWEDiZFxiLXY9-28">
          <mxGeometry x="45" y="200" width="10" height="20" as="geometry" />
        </mxCell>
        <mxCell id="VZGTKw0vWEDiZFxiLXY9-57" value="" style="html=1;points=[];perimeter=orthogonalPerimeter;rounded=0;shadow=0;comic=0;labelBackgroundColor=none;strokeWidth=1;fontFamily=Verdana;fontSize=12;align=center;" vertex="1" parent="VZGTKw0vWEDiZFxiLXY9-28">
          <mxGeometry x="45" y="260" width="10" height="20" as="geometry" />
        </mxCell>
        <mxCell id="VZGTKw0vWEDiZFxiLXY9-65" value="" style="html=1;points=[];perimeter=orthogonalPerimeter;rounded=0;shadow=0;comic=0;labelBackgroundColor=none;strokeWidth=1;fontFamily=Verdana;fontSize=12;align=center;" vertex="1" parent="VZGTKw0vWEDiZFxiLXY9-28">
          <mxGeometry x="45" y="430" width="10" height="20" as="geometry" />
        </mxCell>
        <mxCell id="VZGTKw0vWEDiZFxiLXY9-77" value="" style="html=1;points=[];perimeter=orthogonalPerimeter;rounded=0;shadow=0;comic=0;labelBackgroundColor=none;strokeWidth=1;fontFamily=Verdana;fontSize=12;align=center;" vertex="1" parent="VZGTKw0vWEDiZFxiLXY9-28">
          <mxGeometry x="45" y="550" width="10" height="20" as="geometry" />
        </mxCell>
        <mxCell id="VZGTKw0vWEDiZFxiLXY9-33" value="Capa de negocio" style="shape=umlLifeline;perimeter=lifelinePerimeter;whiteSpace=wrap;html=1;container=1;collapsible=0;recursiveResize=0;outlineConnect=0;rounded=1;shadow=0;comic=0;labelBackgroundColor=none;strokeWidth=1;fontFamily=Verdana;fontSize=12;align=center;" vertex="1" parent="1">
          <mxGeometry x="600" y="40" width="100" height="680" as="geometry" />
        </mxCell>
        <mxCell id="VZGTKw0vWEDiZFxiLXY9-34" value="" style="html=1;points=[];perimeter=orthogonalPerimeter;rounded=0;shadow=0;comic=0;labelBackgroundColor=none;strokeWidth=1;fontFamily=Verdana;fontSize=12;align=center;" vertex="1" parent="VZGTKw0vWEDiZFxiLXY9-33">
          <mxGeometry x="45" y="320" width="10" height="50" as="geometry" />
        </mxCell>
        <mxCell id="VZGTKw0vWEDiZFxiLXY9-35" value="" style="html=1;points=[];perimeter=orthogonalPerimeter;rounded=0;shadow=0;comic=0;labelBackgroundColor=none;strokeWidth=1;fontFamily=Verdana;fontSize=12;align=center;" vertex="1" parent="VZGTKw0vWEDiZFxiLXY9-33">
          <mxGeometry x="50" y="320" width="10" height="20" as="geometry" />
        </mxCell>
        <mxCell id="VZGTKw0vWEDiZFxiLXY9-36" value="9.-Valida el correo" style="html=1;verticalAlign=bottom;endArrow=block;labelBackgroundColor=none;fontFamily=Verdana;fontSize=12;elbow=vertical;edgeStyle=orthogonalEdgeStyle;curved=1;entryX=1.1;entryY=1;entryPerimeter=0;entryDx=0;entryDy=0;exitX=1.02;exitY=0.012;exitDx=0;exitDy=0;exitPerimeter=0;" edge="1" parent="VZGTKw0vWEDiZFxiLXY9-33" source="VZGTKw0vWEDiZFxiLXY9-35" target="VZGTKw0vWEDiZFxiLXY9-35">
          <mxGeometry x="0.2998" y="40" relative="1" as="geometry">
            <mxPoint x="77.5" y="319.97" as="sourcePoint" />
            <mxPoint x="82.50333333333356" y="358.3033333333334" as="targetPoint" />
            <Array as="points">
              <mxPoint x="87.5" y="320" />
              <mxPoint x="87.5" y="340" />
            </Array>
            <mxPoint x="35" y="-20" as="offset" />
          </mxGeometry>
        </mxCell>
        <mxCell id="VZGTKw0vWEDiZFxiLXY9-59" value="" style="html=1;points=[];perimeter=orthogonalPerimeter;rounded=0;shadow=0;comic=0;labelBackgroundColor=none;strokeWidth=1;fontFamily=Verdana;fontSize=12;align=center;" vertex="1" parent="VZGTKw0vWEDiZFxiLXY9-33">
          <mxGeometry x="45" y="280" width="10" height="20" as="geometry" />
        </mxCell>
        <mxCell id="VZGTKw0vWEDiZFxiLXY9-68" value="" style="html=1;points=[];perimeter=orthogonalPerimeter;rounded=0;shadow=0;comic=0;labelBackgroundColor=none;strokeWidth=1;fontFamily=Verdana;fontSize=12;align=center;" vertex="1" parent="VZGTKw0vWEDiZFxiLXY9-33">
          <mxGeometry x="45" y="450" width="10" height="40" as="geometry" />
        </mxCell>
        <mxCell id="VZGTKw0vWEDiZFxiLXY9-69" value="" style="html=1;points=[];perimeter=orthogonalPerimeter;rounded=0;shadow=0;comic=0;labelBackgroundColor=none;strokeWidth=1;fontFamily=Verdana;fontSize=12;align=center;" vertex="1" parent="VZGTKw0vWEDiZFxiLXY9-33">
          <mxGeometry x="50" y="450" width="10" height="20" as="geometry" />
        </mxCell>
        <mxCell id="VZGTKw0vWEDiZFxiLXY9-70" value="14.-Valida nueva contraseña" style="html=1;verticalAlign=bottom;endArrow=block;labelBackgroundColor=none;fontFamily=Verdana;fontSize=12;elbow=vertical;edgeStyle=orthogonalEdgeStyle;curved=1;entryX=1.1;entryY=1;entryPerimeter=0;entryDx=0;entryDy=0;exitX=1.02;exitY=0.012;exitDx=0;exitDy=0;exitPerimeter=0;" edge="1" parent="VZGTKw0vWEDiZFxiLXY9-33" source="VZGTKw0vWEDiZFxiLXY9-69" target="VZGTKw0vWEDiZFxiLXY9-69">
          <mxGeometry x="-0.2581" y="43" relative="1" as="geometry">
            <mxPoint x="77.5" y="449.97" as="sourcePoint" />
            <mxPoint x="82.50333333333356" y="488.3033333333334" as="targetPoint" />
            <Array as="points">
              <mxPoint x="87.5" y="450" />
              <mxPoint x="87.5" y="470" />
            </Array>
            <mxPoint x="-1" y="-10" as="offset" />
          </mxGeometry>
        </mxCell>
        <mxCell id="VZGTKw0vWEDiZFxiLXY9-74" value="" style="html=1;points=[];perimeter=orthogonalPerimeter;rounded=0;shadow=0;comic=0;labelBackgroundColor=none;strokeWidth=1;fontFamily=Verdana;fontSize=12;align=center;" vertex="1" parent="VZGTKw0vWEDiZFxiLXY9-33">
          <mxGeometry x="45" y="520" width="10" height="30" as="geometry" />
        </mxCell>
        <mxCell id="VZGTKw0vWEDiZFxiLXY9-38" value="Base de datos" style="shape=umlLifeline;perimeter=lifelinePerimeter;whiteSpace=wrap;html=1;container=1;collapsible=0;recursiveResize=0;outlineConnect=0;rounded=1;shadow=0;comic=0;labelBackgroundColor=none;strokeWidth=1;fontFamily=Verdana;fontSize=12;align=center;" vertex="1" parent="1">
          <mxGeometry x="820" y="40" width="100" height="680" as="geometry" />
        </mxCell>
        <mxCell id="VZGTKw0vWEDiZFxiLXY9-62" value="" style="html=1;points=[];perimeter=orthogonalPerimeter;rounded=0;shadow=0;comic=0;labelBackgroundColor=none;strokeWidth=1;fontFamily=Verdana;fontSize=12;align=center;" vertex="1" parent="VZGTKw0vWEDiZFxiLXY9-38">
          <mxGeometry x="45" y="300" width="10" height="20" as="geometry" />
        </mxCell>
        <mxCell id="VZGTKw0vWEDiZFxiLXY9-72" value="" style="html=1;points=[];perimeter=orthogonalPerimeter;rounded=0;shadow=0;comic=0;labelBackgroundColor=none;strokeWidth=1;fontFamily=Verdana;fontSize=12;align=center;" vertex="1" parent="VZGTKw0vWEDiZFxiLXY9-38">
          <mxGeometry x="45" y="490" width="10" height="30" as="geometry" />
        </mxCell>
        <mxCell id="VZGTKw0vWEDiZFxiLXY9-40" value="Usuario" style="shape=umlLifeline;perimeter=lifelinePerimeter;whiteSpace=wrap;html=1;container=1;collapsible=0;recursiveResize=0;outlineConnect=0;rounded=1;shadow=0;comic=0;labelBackgroundColor=none;strokeWidth=1;fontFamily=Verdana;fontSize=12;align=center;" vertex="1" parent="1">
          <mxGeometry x="190" y="40" width="100" height="680" as="geometry" />
        </mxCell>
        <mxCell id="VZGTKw0vWEDiZFxiLXY9-41" value="" style="html=1;points=[];perimeter=orthogonalPerimeter;rounded=0;shadow=0;comic=0;labelBackgroundColor=none;strokeWidth=1;fontFamily=Verdana;fontSize=12;align=center;" vertex="1" parent="VZGTKw0vWEDiZFxiLXY9-40">
          <mxGeometry x="45" y="100" width="10" height="500" as="geometry" />
        </mxCell>
        <mxCell id="VZGTKw0vWEDiZFxiLXY9-42" value="1.-Iniciar aplicación" style="html=1;verticalAlign=bottom;endArrow=block;entryX=0;entryY=0;labelBackgroundColor=none;fontFamily=Verdana;fontSize=12;edgeStyle=elbowEdgeStyle;elbow=vertical;exitX=0.68;exitY=-0.003;exitDx=0;exitDy=0;exitPerimeter=0;" edge="1" parent="1">
          <mxGeometry relative="1" as="geometry">
            <mxPoint x="241.79999999999995" y="140" as="sourcePoint" />
            <mxPoint as="offset" />
            <mxPoint x="445" y="141.5" as="targetPoint" />
          </mxGeometry>
        </mxCell>
        <mxCell id="VZGTKw0vWEDiZFxiLXY9-46" value="3.-Seleccion Iniciar sesión" style="html=1;verticalAlign=bottom;endArrow=block;labelBackgroundColor=none;fontFamily=Verdana;fontSize=12;edgeStyle=elbowEdgeStyle;elbow=vertical;exitX=0.96;exitY=0.118;exitDx=0;exitDy=0;exitPerimeter=0;" edge="1" parent="1">
          <mxGeometry x="-0.041" y="-20" relative="1" as="geometry">
            <mxPoint x="244.60000000000002" y="170.01" as="sourcePoint" />
            <mxPoint x="449.5" y="170" as="targetPoint" />
            <mxPoint as="offset" />
          </mxGeometry>
        </mxCell>
        <mxCell id="VZGTKw0vWEDiZFxiLXY9-47" value="10.-Captura los datos" style="html=1;verticalAlign=bottom;endArrow=block;labelBackgroundColor=none;fontFamily=Verdana;fontSize=12;edgeStyle=elbowEdgeStyle;elbow=vertical;exitX=0.105;exitY=0.99;exitDx=0;exitDy=0;exitPerimeter=0;entryX=0.819;entryY=-0.033;entryDx=0;entryDy=0;entryPerimeter=0;" edge="1" parent="1" source="VZGTKw0vWEDiZFxiLXY9-34" target="VZGTKw0vWEDiZFxiLXY9-31">
          <mxGeometry relative="1" as="geometry">
            <mxPoint x="625.4" y="410" as="sourcePoint" />
            <Array as="points">
              <mxPoint x="565.4" y="410" />
            </Array>
            <mxPoint x="500" y="410" as="targetPoint" />
          </mxGeometry>
        </mxCell>
        <mxCell id="VZGTKw0vWEDiZFxiLXY9-49" value="2.-Despliegue Menú inicial" style="html=1;verticalAlign=bottom;endArrow=block;labelBackgroundColor=none;fontFamily=Verdana;fontSize=12;edgeStyle=elbowEdgeStyle;elbow=vertical;exitX=-0.08;exitY=1;exitDx=0;exitDy=0;exitPerimeter=0;" edge="1" parent="1" source="VZGTKw0vWEDiZFxiLXY9-29" target="VZGTKw0vWEDiZFxiLXY9-41">
          <mxGeometry x="0.0028" y="1" relative="1" as="geometry">
            <mxPoint x="454.6700000000001" y="161.09000000000003" as="sourcePoint" />
            <mxPoint x="270" y="160" as="targetPoint" />
            <mxPoint as="offset" />
            <Array as="points">
              <mxPoint x="340" y="160" />
            </Array>
          </mxGeometry>
        </mxCell>
        <mxCell id="VZGTKw0vWEDiZFxiLXY9-50" value="4.-Despliegue inicio sesión" style="html=1;verticalAlign=bottom;endArrow=block;labelBackgroundColor=none;fontFamily=Verdana;fontSize=12;edgeStyle=elbowEdgeStyle;elbow=vertical;exitX=-0.04;exitY=1;exitDx=0;exitDy=0;exitPerimeter=0;entryX=1;entryY=0.121;entryDx=0;entryDy=0;entryPerimeter=0;" edge="1" parent="1" source="VZGTKw0vWEDiZFxiLXY9-30" target="VZGTKw0vWEDiZFxiLXY9-41">
          <mxGeometry x="-0.0497" y="20" relative="1" as="geometry">
            <mxPoint x="449.00000000000006" y="201.09000000000003" as="sourcePoint" />
            <mxPoint x="250" y="200" as="targetPoint" />
            <mxPoint as="offset" />
            <Array as="points">
              <mxPoint x="260" y="200" />
            </Array>
          </mxGeometry>
        </mxCell>
        <mxCell id="VZGTKw0vWEDiZFxiLXY9-51" value="5.-Seleccionar recuperar cuenta" style="html=1;verticalAlign=bottom;endArrow=block;labelBackgroundColor=none;fontFamily=Verdana;fontSize=12;edgeStyle=elbowEdgeStyle;elbow=vertical;entryX=-0.08;entryY=0;entryDx=0;entryDy=0;entryPerimeter=0;exitX=1;exitY=0.202;exitDx=0;exitDy=0;exitPerimeter=0;" edge="1" parent="1" source="VZGTKw0vWEDiZFxiLXY9-41" target="VZGTKw0vWEDiZFxiLXY9-32">
          <mxGeometry relative="1" as="geometry">
            <mxPoint x="270" y="240" as="sourcePoint" />
            <mxPoint as="offset" />
            <mxPoint x="410" y="240" as="targetPoint" />
            <Array as="points">
              <mxPoint x="340" y="240" />
            </Array>
          </mxGeometry>
        </mxCell>
        <mxCell id="VZGTKw0vWEDiZFxiLXY9-55" value="6.-Interfaz recuperar cuenta" style="html=1;verticalAlign=bottom;endArrow=block;labelBackgroundColor=none;fontFamily=Verdana;fontSize=12;edgeStyle=elbowEdgeStyle;elbow=vertical;exitX=0.105;exitY=0.974;exitDx=0;exitDy=0;exitPerimeter=0;entryX=0.96;entryY=0.241;entryDx=0;entryDy=0;entryPerimeter=0;" edge="1" parent="1" source="VZGTKw0vWEDiZFxiLXY9-32" target="VZGTKw0vWEDiZFxiLXY9-41">
          <mxGeometry x="-0.0005" y="20" relative="1" as="geometry">
            <mxPoint x="440" y="259.5" as="sourcePoint" />
            <mxPoint x="290" y="260" as="targetPoint" />
            <mxPoint as="offset" />
            <Array as="points">
              <mxPoint x="340" y="260" />
            </Array>
          </mxGeometry>
        </mxCell>
        <mxCell id="VZGTKw0vWEDiZFxiLXY9-56" value="7.-Ingresar correo electrónico" style="html=1;verticalAlign=bottom;endArrow=block;labelBackgroundColor=none;fontFamily=Verdana;fontSize=12;edgeStyle=elbowEdgeStyle;elbow=vertical;exitX=1.057;exitY=0.321;exitDx=0;exitDy=0;exitPerimeter=0;entryX=0.152;entryY=0.021;entryDx=0;entryDy=0;entryPerimeter=0;" edge="1" parent="1" source="VZGTKw0vWEDiZFxiLXY9-41" target="VZGTKw0vWEDiZFxiLXY9-57">
          <mxGeometry relative="1" as="geometry">
            <mxPoint x="250" y="300" as="sourcePoint" />
            <mxPoint as="offset" />
            <mxPoint x="420" y="301" as="targetPoint" />
            <Array as="points">
              <mxPoint x="340" y="300" />
            </Array>
          </mxGeometry>
        </mxCell>
        <mxCell id="VZGTKw0vWEDiZFxiLXY9-58" value="8.-Captura los datos" style="html=1;verticalAlign=bottom;endArrow=block;labelBackgroundColor=none;fontFamily=Verdana;fontSize=12;edgeStyle=elbowEdgeStyle;elbow=vertical;exitX=1.057;exitY=0.64;exitDx=0;exitDy=0;exitPerimeter=0;entryX=0.057;entryY=0.045;entryDx=0;entryDy=0;entryPerimeter=0;" edge="1" parent="1" target="VZGTKw0vWEDiZFxiLXY9-59">
          <mxGeometry relative="1" as="geometry">
            <mxPoint x="450" y="320.05" as="sourcePoint" />
            <mxPoint as="offset" />
            <mxPoint x="610" y="320" as="targetPoint" />
          </mxGeometry>
        </mxCell>
        <mxCell id="VZGTKw0vWEDiZFxiLXY9-60" value="9.-El correo si existe" style="html=1;verticalAlign=bottom;endArrow=block;labelBackgroundColor=none;fontFamily=Verdana;fontSize=12;edgeStyle=elbowEdgeStyle;elbow=vertical;exitX=0.771;exitY=0.974;exitDx=0;exitDy=0;exitPerimeter=0;entryX=0.105;entryY=0.03;entryDx=0;entryDy=0;entryPerimeter=0;" edge="1" parent="1" source="VZGTKw0vWEDiZFxiLXY9-59" target="VZGTKw0vWEDiZFxiLXY9-62">
          <mxGeometry relative="1" as="geometry">
            <mxPoint x="660" y="340" as="sourcePoint" />
            <Array as="points">
              <mxPoint x="774" y="340" />
            </Array>
            <mxPoint x="850" y="340" as="targetPoint" />
          </mxGeometry>
        </mxCell>
        <mxCell id="VZGTKw0vWEDiZFxiLXY9-63" value="8.-Captura los datos" style="html=1;verticalAlign=bottom;endArrow=block;labelBackgroundColor=none;fontFamily=Verdana;fontSize=12;edgeStyle=elbowEdgeStyle;elbow=vertical;exitX=0.057;exitY=0.974;exitDx=0;exitDy=0;exitPerimeter=0;entryX=1.129;entryY=0.045;entryDx=0;entryDy=0;entryPerimeter=0;" edge="1" parent="1" source="VZGTKw0vWEDiZFxiLXY9-62" target="VZGTKw0vWEDiZFxiLXY9-35">
          <mxGeometry relative="1" as="geometry">
            <mxPoint x="850" y="360" as="sourcePoint" />
            <Array as="points">
              <mxPoint x="740" y="360" />
            </Array>
            <mxPoint x="680" y="361" as="targetPoint" />
          </mxGeometry>
        </mxCell>
        <mxCell id="VZGTKw0vWEDiZFxiLXY9-48" value="11.-Apartado cambio contraseña" style="html=1;verticalAlign=bottom;endArrow=block;labelBackgroundColor=none;fontFamily=Verdana;fontSize=12;edgeStyle=elbowEdgeStyle;elbow=vertical;exitX=0.343;exitY=1.014;exitDx=0;exitDy=0;exitPerimeter=0;entryX=0.96;entryY=0.6;entryDx=0;entryDy=0;entryPerimeter=0;" edge="1" parent="1" source="VZGTKw0vWEDiZFxiLXY9-31" target="VZGTKw0vWEDiZFxiLXY9-41">
          <mxGeometry x="0.0003" relative="1" as="geometry">
            <mxPoint x="414" y="440.05" as="sourcePoint" />
            <Array as="points" />
            <mxPoint x="284" y="440.05" as="targetPoint" />
            <mxPoint as="offset" />
          </mxGeometry>
        </mxCell>
        <mxCell id="VZGTKw0vWEDiZFxiLXY9-64" value="12.-Ingresa nueva contraseña" style="html=1;verticalAlign=bottom;endArrow=block;labelBackgroundColor=none;fontFamily=Verdana;fontSize=12;edgeStyle=elbowEdgeStyle;elbow=vertical;exitX=1.08;exitY=0.658;exitDx=0;exitDy=0;exitPerimeter=0;entryX=0.057;entryY=0.045;entryDx=0;entryDy=0;entryPerimeter=0;" edge="1" parent="1" source="VZGTKw0vWEDiZFxiLXY9-41">
          <mxGeometry relative="1" as="geometry">
            <mxPoint x="250" y="470" as="sourcePoint" />
            <mxPoint as="offset" />
            <mxPoint x="446" y="470.95" as="targetPoint" />
          </mxGeometry>
        </mxCell>
        <mxCell id="VZGTKw0vWEDiZFxiLXY9-66" value="13.-Captura nueva contraseña" style="html=1;verticalAlign=bottom;endArrow=block;labelBackgroundColor=none;fontFamily=Verdana;fontSize=12;edgeStyle=elbowEdgeStyle;elbow=vertical;exitX=0.557;exitY=1.013;exitDx=0;exitDy=0;exitPerimeter=0;entryX=-0.017;entryY=-0.011;entryDx=0;entryDy=0;entryPerimeter=0;" edge="1" parent="1" source="VZGTKw0vWEDiZFxiLXY9-65" target="VZGTKw0vWEDiZFxiLXY9-68">
          <mxGeometry relative="1" as="geometry">
            <mxPoint x="460" y="490" as="sourcePoint" />
            <mxPoint as="offset" />
            <mxPoint x="630" y="490" as="targetPoint" />
          </mxGeometry>
        </mxCell>
        <mxCell id="VZGTKw0vWEDiZFxiLXY9-71" value="15.-Modifica contraseña" style="html=1;verticalAlign=bottom;endArrow=block;labelBackgroundColor=none;fontFamily=Verdana;fontSize=12;edgeStyle=elbowEdgeStyle;elbow=vertical;exitX=0.771;exitY=0.974;exitDx=0;exitDy=0;exitPerimeter=0;entryX=0.078;entryY=0.039;entryDx=0;entryDy=0;entryPerimeter=0;" edge="1" parent="1" target="VZGTKw0vWEDiZFxiLXY9-72">
          <mxGeometry relative="1" as="geometry">
            <mxPoint x="650" y="530" as="sourcePoint" />
            <Array as="points">
              <mxPoint x="771" y="531" />
            </Array>
            <mxPoint x="850" y="530" as="targetPoint" />
          </mxGeometry>
        </mxCell>
        <mxCell id="VZGTKw0vWEDiZFxiLXY9-73" value="16.-Envia los datos" style="html=1;verticalAlign=bottom;endArrow=block;labelBackgroundColor=none;fontFamily=Verdana;fontSize=12;edgeStyle=elbowEdgeStyle;elbow=vertical;exitX=0.078;exitY=0.983;exitDx=0;exitDy=0;exitPerimeter=0;entryX=1;entryY=0.011;entryDx=0;entryDy=0;entryPerimeter=0;" edge="1" parent="1" source="VZGTKw0vWEDiZFxiLXY9-72" target="VZGTKw0vWEDiZFxiLXY9-74">
          <mxGeometry relative="1" as="geometry">
            <mxPoint x="860" y="560" as="sourcePoint" />
            <Array as="points">
              <mxPoint x="750" y="560" />
            </Array>
            <mxPoint x="680" y="560" as="targetPoint" />
          </mxGeometry>
        </mxCell>
        <mxCell id="VZGTKw0vWEDiZFxiLXY9-75" value="17.-Notificacion de éxito" style="html=1;verticalAlign=bottom;endArrow=block;labelBackgroundColor=none;fontFamily=Verdana;fontSize=12;edgeStyle=elbowEdgeStyle;elbow=vertical;exitX=0.133;exitY=1;exitDx=0;exitDy=0;exitPerimeter=0;" edge="1" parent="1" source="VZGTKw0vWEDiZFxiLXY9-74" target="VZGTKw0vWEDiZFxiLXY9-28">
          <mxGeometry relative="1" as="geometry">
            <mxPoint x="630" y="590" as="sourcePoint" />
            <Array as="points">
              <mxPoint x="530" y="590" />
            </Array>
            <mxPoint x="480" y="590" as="targetPoint" />
          </mxGeometry>
        </mxCell>
        <mxCell id="VZGTKw0vWEDiZFxiLXY9-76" value="18.-Interfaz inicio de sesión" style="html=1;verticalAlign=bottom;endArrow=block;labelBackgroundColor=none;fontFamily=Verdana;fontSize=12;edgeStyle=elbowEdgeStyle;elbow=vertical;exitX=0.067;exitY=1.05;exitDx=0;exitDy=0;exitPerimeter=0;entryX=1.033;entryY=0.941;entryDx=0;entryDy=0;entryPerimeter=0;" edge="1" parent="1" source="VZGTKw0vWEDiZFxiLXY9-77" target="VZGTKw0vWEDiZFxiLXY9-41">
          <mxGeometry relative="1" as="geometry">
            <mxPoint x="434.43" y="610" as="sourcePoint" />
            <Array as="points">
              <mxPoint x="324.43" y="610" />
            </Array>
            <mxPoint x="270" y="610" as="targetPoint" />
          </mxGeometry>
        </mxCell>
      </root>
    </mxGraphModel>
  </diagram>
</mxfile>
